<svg width="24" height="24" viewBox="0 0 24 24" fill="none" xmlns="http://www.w3.org/2000/svg">
<g clip-path="url(#clip0_313_6934)">
<path d="M7.57801 5.00011C8.1947 5.00011 8.81138 5.05894 9.3987 5.17658C9.89793 5.29423 10.3678 5.50011 10.8083 5.79423C11.19 6.08835 11.5131 6.4707 11.7186 6.91188C11.9536 7.4707 12.071 8.05894 12.0417 8.64717C12.071 9.29423 11.8948 9.94129 11.5718 10.5001C11.2194 11.0295 10.7202 11.4413 10.1622 11.706C10.9551 11.9119 11.6305 12.4119 12.071 13.0589C12.5115 13.7648 12.7171 14.5883 12.7171 15.4119C12.7171 16.0883 12.5996 16.7354 12.3059 17.3236C12.0417 17.8531 11.6599 18.2942 11.2194 18.6766C10.7495 19.0295 10.1916 19.2942 9.63363 19.4413C9.04631 19.6178 8.42962 19.6766 7.81293 19.6766H1V4.9707H7.57801V5.00011ZM7.16688 10.9413C7.63674 10.9707 8.13596 10.8236 8.51772 10.5295C8.89948 10.206 9.10504 9.706 9.04631 9.17658C9.04631 8.88247 8.98758 8.58835 8.87012 8.32364C8.75265 8.11776 8.60582 7.94129 8.40026 7.82364C8.19469 7.706 7.95977 7.58835 7.72484 7.55894C7.46054 7.50011 7.19625 7.50011 6.93195 7.50011H4.05408V10.9413H7.16688ZM7.34308 17.2354C7.63674 17.2354 7.9304 17.206 8.1947 17.1472C8.45899 17.0883 8.69392 16.9707 8.92885 16.8236C9.13441 16.6766 9.31061 16.4707 9.42807 16.2354C9.5749 15.9413 9.63364 15.6178 9.60427 15.2942C9.663 14.6766 9.42807 14.0883 8.98758 13.6766C8.51772 13.3236 7.95977 13.1766 7.37244 13.206H4.05408V17.2648H7.34308V17.2354Z" fill="#fff"/>
<path d="M17.0624 17.1763C17.5617 17.6174 18.2077 17.8527 18.8538 17.8233C19.3824 17.8233 19.8816 17.6763 20.2927 17.3821C20.6451 17.1469 20.88 16.8233 21.0269 16.441H23.4643C23.2 17.5292 22.5539 18.4998 21.6729 19.1763C20.8213 19.7645 19.7935 20.0292 18.7363 19.9998C18.0022 19.9998 17.268 19.8821 16.5632 19.588C15.9465 19.3233 15.3886 18.941 14.9481 18.441C14.5076 17.9116 14.1552 17.3233 13.9203 16.6763C13.656 15.941 13.5385 15.1763 13.5679 14.4116C13.5679 13.6468 13.6853 12.9116 13.9496 12.1763C14.6544 10.1174 16.5926 8.73509 18.7657 8.7645C19.5586 8.73509 20.3221 8.94097 21.0269 9.29391C21.6436 9.64685 22.2015 10.1174 22.6126 10.7057C23.0238 11.3233 23.3468 11.9998 23.4936 12.7351C23.6698 13.4998 23.7286 14.3233 23.6992 15.1174H16.4164C16.3283 15.8527 16.5632 16.588 17.0624 17.1763ZM20.234 11.5586C19.8229 11.1469 19.2649 10.941 18.6776 10.9704C18.2958 10.9704 17.9141 11.0292 17.591 11.2057C17.3267 11.3527 17.0918 11.5586 16.8862 11.7939C16.7101 12.0292 16.5926 12.2645 16.5045 12.5586C16.4458 12.7939 16.387 13.0292 16.387 13.2645H20.9094C20.8507 12.6469 20.6157 12.0586 20.234 11.5586Z" fill="#fff"/>
<path d="M21.4381 5.9707H15.7998V7.41188H21.4381V5.9707Z" fill="#fff"/>
</g>
<defs>
<clipPath id="clip0_313_6934">
<rect width="22.7" height="15" fill="white" transform="translate(1 5)"/>
</clipPath>
</defs>
</svg>
