<svg id="visual" viewBox="0 0 675 900" width="675" height="900" xmlns="http://www.w3.org/2000/svg" xmlns:xlink="http://www.w3.org/1999/xlink" version="1.1"><path d="M228 0L211.7 25C195.3 50 162.7 100 161.7 150C160.7 200 191.3 250 206.2 300C221 350 220 400 204.2 450C188.3 500 157.7 550 155.2 600C152.7 650 178.3 700 176.3 750C174.3 800 144.7 850 129.8 875L115 900L0 900L0 875C0 850 0 800 0 750C0 700 0 650 0 600C0 550 0 500 0 450C0 400 0 350 0 300C0 250 0 200 0 150C0 100 0 50 0 25L0 0Z" fill="#f9f9f9" stroke-linecap="round" stroke-linejoin="miter"></path></svg>