<svg id="visual" viewBox="0 0 675 150" width="675" height="150" xmlns="http://www.w3.org/2000/svg" xmlns:xlink="http://www.w3.org/1999/xlink" version="1.1"><path d="M0 114L16 112.2C32 110.3 64 106.7 96.2 106C128.3 105.3 160.7 107.7 192.8 110.5C225 113.3 257 116.7 289.2 119.2C321.3 121.7 353.7 123.3 385.8 121.8C418 120.3 450 115.7 482.2 114.7C514.3 113.7 546.7 116.3 578.8 113.7C611 111 643 103 659 99L675 95L675 151L659 151C643 151 611 151 578.8 151C546.7 151 514.3 151 482.2 151C450 151 418 151 385.8 151C353.7 151 321.3 151 289.2 151C257 151 225 151 192.8 151C160.7 151 128.3 151 96.2 151C64 151 32 151 16 151L0 151Z" fill="#f9d4ff" stroke-linecap="round" stroke-linejoin="miter"></path></svg>